# Blender v2.76 (sub 0) OBJ File: ''
# www.blender.org
mtllib ile2.mtl
o Curve.001_Oval-1-Copy
v 0.038623 0.010000 0.142623
v 0.036723 0.010000 0.134261
v 0.034037 0.010000 0.125482
v 0.030958 0.010000 0.116482
v 0.027880 0.010000 0.107459
v 0.025194 0.010000 0.098608
v 0.023294 0.010000 0.090126
v 0.022573 0.010000 0.082209
v 0.023425 0.010000 0.075054
v 0.026242 0.010000 0.068857
v 0.031417 0.010000 0.063816
v 0.039344 0.010000 0.060125
v 0.043121 0.010000 0.058497
v 0.047233 0.010000 0.055989
v 0.051624 0.010000 0.052795
v 0.056236 0.010000 0.049111
v 0.061015 0.010000 0.045130
v 0.065903 0.010000 0.041048
v 0.070845 0.010000 0.037060
v 0.075784 0.010000 0.033360
v 0.080664 0.010000 0.030143
v 0.085429 0.010000 0.027605
v 0.090023 0.010000 0.025939
v 0.094389 0.010000 0.025340
v 0.101018 0.010000 0.026071
v 0.111346 0.010000 0.028105
v 0.124619 0.010000 0.031203
v 0.140085 0.010000 0.035126
v 0.156993 0.010000 0.039633
v 0.174591 0.010000 0.044486
v 0.192126 0.010000 0.049445
v 0.208846 0.010000 0.054271
v 0.224000 0.010000 0.058724
v 0.236835 0.010000 0.062566
v 0.246599 0.010000 0.065556
v 0.252540 0.010000 0.067456
v 0.260307 0.010000 0.071099
v 0.265761 0.010000 0.075835
v 0.269213 0.010000 0.081514
v 0.270975 0.010000 0.087986
v 0.271361 0.010000 0.095103
v 0.270682 0.010000 0.102714
v 0.269251 0.010000 0.110669
v 0.267379 0.010000 0.118819
v 0.265380 0.010000 0.127014
v 0.263565 0.010000 0.135104
v 0.262247 0.010000 0.142940
v 0.261739 0.010000 0.150372
v 0.261760 0.010000 0.160746
v 0.261669 0.010000 0.171354
v 0.261231 0.010000 0.181980
v 0.260214 0.010000 0.192406
v 0.258384 0.010000 0.202417
v 0.255508 0.010000 0.211796
v 0.251353 0.010000 0.220326
v 0.245685 0.010000 0.227790
v 0.238271 0.010000 0.233973
v 0.228877 0.010000 0.238657
v 0.217271 0.010000 0.241627
v 0.203218 0.010000 0.242665
v 0.196862 0.010000 0.241958
v 0.190658 0.010000 0.239969
v 0.184559 0.010000 0.236899
v 0.178518 0.010000 0.232948
v 0.172491 0.010000 0.228314
v 0.166429 0.010000 0.223198
v 0.160287 0.010000 0.217800
v 0.154019 0.010000 0.212318
v 0.147578 0.010000 0.206954
v 0.140917 0.010000 0.201906
v 0.133991 0.010000 0.197374
v 0.126752 0.010000 0.193558
v 0.116432 0.010000 0.189224
v 0.106062 0.010000 0.185495
v 0.095822 0.010000 0.182229
v 0.085894 0.010000 0.179286
v 0.076458 0.010000 0.176524
v 0.067695 0.010000 0.173801
v 0.059784 0.010000 0.170976
v 0.052907 0.010000 0.167908
v 0.047244 0.010000 0.164454
v 0.042975 0.010000 0.160475
v 0.040282 0.010000 0.155828
v 0.039344 0.010000 0.150372
v 0.038623 -0.010000 0.142623
v 0.036723 -0.010000 0.134261
v 0.034037 -0.010000 0.125482
v 0.030958 -0.010000 0.116482
v 0.027880 -0.010000 0.107459
v 0.025194 -0.010000 0.098608
v 0.023294 -0.010000 0.090126
v 0.022573 -0.010000 0.082209
v 0.023425 -0.010000 0.075054
v 0.026242 -0.010000 0.068857
v 0.031417 -0.010000 0.063816
v 0.039344 -0.010000 0.060125
v 0.043121 -0.010000 0.058497
v 0.047233 -0.010000 0.055989
v 0.051624 -0.010000 0.052795
v 0.056236 -0.010000 0.049111
v 0.061015 -0.010000 0.045130
v 0.065903 -0.010000 0.041048
v 0.070845 -0.010000 0.037060
v 0.075784 -0.010000 0.033360
v 0.080664 -0.010000 0.030143
v 0.085429 -0.010000 0.027605
v 0.090023 -0.010000 0.025939
v 0.094389 -0.010000 0.025340
v 0.101018 -0.010000 0.026071
v 0.111346 -0.010000 0.028105
v 0.124619 -0.010000 0.031203
v 0.140085 -0.010000 0.035126
v 0.156993 -0.010000 0.039633
v 0.174591 -0.010000 0.044486
v 0.192126 -0.010000 0.049445
v 0.208846 -0.010000 0.054271
v 0.224000 -0.010000 0.058724
v 0.236835 -0.010000 0.062566
v 0.246599 -0.010000 0.065556
v 0.252540 -0.010000 0.067456
v 0.260307 -0.010000 0.071099
v 0.265761 -0.010000 0.075835
v 0.269213 -0.010000 0.081514
v 0.270975 -0.010000 0.087986
v 0.271361 -0.010000 0.095103
v 0.270682 -0.010000 0.102714
v 0.269251 -0.010000 0.110669
v 0.267379 -0.010000 0.118819
v 0.265380 -0.010000 0.127014
v 0.263565 -0.010000 0.135104
v 0.262247 -0.010000 0.142940
v 0.261739 -0.010000 0.150372
v 0.261760 -0.010000 0.160746
v 0.261669 -0.010000 0.171354
v 0.261231 -0.010000 0.181980
v 0.260214 -0.010000 0.192406
v 0.258384 -0.010000 0.202417
v 0.255508 -0.010000 0.211796
v 0.251353 -0.010000 0.220326
v 0.245685 -0.010000 0.227790
v 0.238271 -0.010000 0.233973
v 0.228877 -0.010000 0.238657
v 0.217271 -0.010000 0.241627
v 0.203218 -0.010000 0.242665
v 0.196862 -0.010000 0.241958
v 0.190658 -0.010000 0.239969
v 0.184559 -0.010000 0.236899
v 0.178518 -0.010000 0.232948
v 0.172491 -0.010000 0.228314
v 0.166429 -0.010000 0.223198
v 0.160287 -0.010000 0.217800
v 0.154019 -0.010000 0.212318
v 0.147578 -0.010000 0.206954
v 0.140917 -0.010000 0.201906
v 0.133991 -0.010000 0.197374
v 0.126752 -0.010000 0.193558
v 0.116432 -0.010000 0.189224
v 0.106062 -0.010000 0.185495
v 0.095822 -0.010000 0.182229
v 0.085894 -0.010000 0.179286
v 0.076458 -0.010000 0.176524
v 0.067695 -0.010000 0.173801
v 0.059784 -0.010000 0.170976
v 0.052907 -0.010000 0.167908
v 0.047244 -0.010000 0.164454
v 0.042975 -0.010000 0.160475
v 0.040282 -0.010000 0.155828
v 0.039344 -0.010000 0.150372
v 0.038623 -0.010000 0.142623
v 0.038623 0.010000 0.142623
v 0.036723 -0.010000 0.134261
v 0.036723 0.010000 0.134261
v 0.034037 -0.010000 0.125482
v 0.034037 0.010000 0.125482
v 0.030958 -0.010000 0.116482
v 0.030958 0.010000 0.116482
v 0.027880 -0.010000 0.107459
v 0.027880 0.010000 0.107459
v 0.025194 -0.010000 0.098608
v 0.025194 0.010000 0.098608
v 0.023294 -0.010000 0.090126
v 0.023294 0.010000 0.090126
v 0.022573 -0.010000 0.082209
v 0.022573 0.010000 0.082209
v 0.023425 -0.010000 0.075054
v 0.023425 0.010000 0.075054
v 0.026242 -0.010000 0.068857
v 0.026242 0.010000 0.068857
v 0.031417 -0.010000 0.063816
v 0.031417 0.010000 0.063816
v 0.039344 -0.010000 0.060125
v 0.039344 0.010000 0.060125
v 0.043121 -0.010000 0.058497
v 0.043121 0.010000 0.058497
v 0.047233 -0.010000 0.055989
v 0.047233 0.010000 0.055989
v 0.051624 -0.010000 0.052795
v 0.051624 0.010000 0.052795
v 0.056236 -0.010000 0.049111
v 0.056236 0.010000 0.049111
v 0.061015 -0.010000 0.045130
v 0.061015 0.010000 0.045130
v 0.065903 -0.010000 0.041048
v 0.065903 0.010000 0.041048
v 0.070845 -0.010000 0.037060
v 0.070845 0.010000 0.037060
v 0.075784 -0.010000 0.033360
v 0.075784 0.010000 0.033360
v 0.080664 -0.010000 0.030143
v 0.080664 0.010000 0.030143
v 0.085429 -0.010000 0.027605
v 0.085429 0.010000 0.027605
v 0.090023 -0.010000 0.025939
v 0.090023 0.010000 0.025939
v 0.094389 -0.010000 0.025340
v 0.094389 0.010000 0.025340
v 0.101018 -0.010000 0.026071
v 0.101018 0.010000 0.026071
v 0.111346 -0.010000 0.028105
v 0.111346 0.010000 0.028105
v 0.124619 -0.010000 0.031203
v 0.124619 0.010000 0.031203
v 0.140085 -0.010000 0.035126
v 0.140085 0.010000 0.035126
v 0.156993 -0.010000 0.039633
v 0.156993 0.010000 0.039633
v 0.174591 -0.010000 0.044486
v 0.174591 0.010000 0.044486
v 0.192126 -0.010000 0.049445
v 0.192126 0.010000 0.049445
v 0.208846 -0.010000 0.054271
v 0.208846 0.010000 0.054271
v 0.224000 -0.010000 0.058724
v 0.224000 0.010000 0.058724
v 0.236835 -0.010000 0.062566
v 0.236835 0.010000 0.062566
v 0.246599 -0.010000 0.065556
v 0.246599 0.010000 0.065556
v 0.252540 -0.010000 0.067456
v 0.252540 0.010000 0.067456
v 0.260307 -0.010000 0.071099
v 0.260307 0.010000 0.071099
v 0.265761 -0.010000 0.075835
v 0.265761 0.010000 0.075835
v 0.269213 -0.010000 0.081514
v 0.269213 0.010000 0.081514
v 0.270975 -0.010000 0.087986
v 0.270975 0.010000 0.087986
v 0.271361 -0.010000 0.095103
v 0.271361 0.010000 0.095103
v 0.270682 -0.010000 0.102714
v 0.270682 0.010000 0.102714
v 0.269251 -0.010000 0.110669
v 0.269251 0.010000 0.110669
v 0.267379 -0.010000 0.118819
v 0.267379 0.010000 0.118819
v 0.265380 -0.010000 0.127014
v 0.265380 0.010000 0.127014
v 0.263565 -0.010000 0.135104
v 0.263565 0.010000 0.135104
v 0.262247 -0.010000 0.142940
v 0.262247 0.010000 0.142940
v 0.261739 -0.010000 0.150372
v 0.261739 0.010000 0.150372
v 0.261760 -0.010000 0.160746
v 0.261760 0.010000 0.160746
v 0.261669 -0.010000 0.171354
v 0.261669 0.010000 0.171354
v 0.261231 -0.010000 0.181980
v 0.261231 0.010000 0.181980
v 0.260214 -0.010000 0.192406
v 0.260214 0.010000 0.192406
v 0.258384 -0.010000 0.202417
v 0.258384 0.010000 0.202417
v 0.255508 -0.010000 0.211796
v 0.255508 0.010000 0.211796
v 0.251353 -0.010000 0.220326
v 0.251353 0.010000 0.220326
v 0.245685 -0.010000 0.227790
v 0.245685 0.010000 0.227790
v 0.238271 -0.010000 0.233973
v 0.238271 0.010000 0.233973
v 0.228877 -0.010000 0.238657
v 0.228877 0.010000 0.238657
v 0.217271 -0.010000 0.241627
v 0.217271 0.010000 0.241627
v 0.203218 -0.010000 0.242665
v 0.203218 0.010000 0.242665
v 0.196862 -0.010000 0.241958
v 0.196862 0.010000 0.241958
v 0.190658 -0.010000 0.239969
v 0.190658 0.010000 0.239969
v 0.184559 -0.010000 0.236899
v 0.184559 0.010000 0.236899
v 0.178518 -0.010000 0.232948
v 0.178518 0.010000 0.232948
v 0.172491 -0.010000 0.228314
v 0.172491 0.010000 0.228314
v 0.166429 -0.010000 0.223198
v 0.166429 0.010000 0.223198
v 0.160287 -0.010000 0.217800
v 0.160287 0.010000 0.217800
v 0.154019 -0.010000 0.212318
v 0.154019 0.010000 0.212318
v 0.147578 -0.010000 0.206954
v 0.147578 0.010000 0.206954
v 0.140917 -0.010000 0.201906
v 0.140917 0.010000 0.201906
v 0.133991 -0.010000 0.197374
v 0.133991 0.010000 0.197374
v 0.126752 -0.010000 0.193558
v 0.126752 0.010000 0.193558
v 0.116432 -0.010000 0.189224
v 0.116432 0.010000 0.189224
v 0.106062 -0.010000 0.185495
v 0.106062 0.010000 0.185495
v 0.095822 -0.010000 0.182229
v 0.095822 0.010000 0.182229
v 0.085894 -0.010000 0.179286
v 0.085894 0.010000 0.179286
v 0.076458 -0.010000 0.176524
v 0.076458 0.010000 0.176524
v 0.067695 -0.010000 0.173801
v 0.067695 0.010000 0.173801
v 0.059784 -0.010000 0.170976
v 0.059784 0.010000 0.170976
v 0.052907 -0.010000 0.167908
v 0.052907 0.010000 0.167908
v 0.047244 -0.010000 0.164454
v 0.047244 0.010000 0.164454
v 0.042975 -0.010000 0.160475
v 0.042975 0.010000 0.160475
v 0.040282 -0.010000 0.155828
v 0.040282 0.010000 0.155828
v 0.039344 -0.010000 0.150372
v 0.039344 0.010000 0.150372
vn 0.000000 1.000000 0.000000
vn 0.000000 -1.000000 -0.000000
vn -0.987500 0.000000 0.157400
vn -0.966300 0.000000 0.257200
vn -0.951300 0.000000 0.308100
vn -0.946300 0.000000 0.323300
vn -0.951800 0.000000 0.306700
vn -0.967000 0.000000 0.254600
vn -0.987900 0.000000 0.154900
vn -0.999900 0.000000 -0.013800
vn -0.963100 0.000000 -0.269200
vn -0.818200 0.000000 -0.574900
vn -0.567900 0.000000 -0.823000
vn -0.408900 0.000000 -0.912500
vn -0.459400 0.000000 -0.888200
vn -0.554900 0.000000 -0.831900
vn -0.606300 0.000000 -0.795200
vn -0.632100 0.000000 -0.774900
vn -0.640500 0.000000 -0.767900
vn -0.634500 0.000000 -0.772900
vn -0.613900 0.000000 -0.789400
vn -0.575200 0.000000 -0.818000
vn -0.510800 0.000000 -0.859700
vn -0.406600 0.000000 -0.913600
vn -0.239700 0.000000 -0.970800
vn -0.013200 0.000000 -0.999900
vn 0.151600 0.000000 -0.988400
vn 0.210300 0.000000 -0.977600
vn 0.236500 0.000000 -0.971600
vn 0.251700 0.000000 -0.967800
vn 0.261700 0.000000 -0.965100
vn 0.269000 0.000000 -0.963100
vn 0.274700 0.000000 -0.961500
vn 0.279600 0.000000 -0.960100
vn 0.284300 0.000000 -0.958700
vn 0.289800 0.000000 -0.957100
vn 0.298700 0.000000 -0.954300
vn 0.365300 0.000000 -0.930800
vn 0.545300 0.000000 -0.838200
vn 0.764200 0.000000 -0.644900
vn 0.918700 0.000000 -0.394900
vn 0.987200 0.000000 -0.159300
vn 0.999800 0.000000 0.017400
vn 0.991100 0.000000 0.133100
vn 0.979700 0.000000 0.200500
vn 0.973100 0.000000 0.230400
vn 0.973700 0.000000 0.227900
vn 0.981300 0.000000 0.192400
vn 0.993100 0.000000 0.117200
vn 0.999500 0.000000 0.033100
vn 1.000000 0.000000 0.003300
vn 0.999700 0.000000 0.024900
vn 0.997600 0.000000 0.069100
vn 0.990300 0.000000 0.138600
vn 0.971500 0.000000 0.236900
vn 0.930300 0.000000 0.366600
vn 0.851800 0.000000 0.523900
vn 0.723000 0.000000 0.690800
vn 0.547000 0.000000 0.837100
vn 0.349000 0.000000 0.937100
vn 0.161400 0.000000 0.986900
vn -0.018500 0.000000 0.999800
vn -0.208900 0.000000 0.977900
vn -0.378500 0.000000 0.925600
vn -0.499300 0.000000 0.866400
vn -0.578900 0.000000 0.815400
vn -0.627400 0.000000 0.778700
vn -0.652600 0.000000 0.757700
vn -0.659200 0.000000 0.751900
vn -0.649200 0.000000 0.760600
vn -0.622100 0.000000 0.782900
vn -0.576100 0.000000 0.817400
vn -0.507500 0.000000 0.861700
vn -0.427200 0.000000 0.904100
vn -0.362900 0.000000 0.931800
vn -0.321100 0.000000 0.947000
vn -0.294000 0.000000 0.955800
vn -0.282600 0.000000 0.959200
vn -0.288800 0.000000 0.957400
vn -0.316600 0.000000 0.948500
vn -0.372100 0.000000 0.928200
vn -0.464900 0.000000 0.885300
vn -0.604300 0.000000 0.796700
vn -0.782000 0.000000 0.623200
vn -0.940100 0.000000 0.340800
vn -0.991400 0.000000 0.131100
usemtl SVGMat.007
s off
f 23//1 25//1 24//1
f 22//1 25//1 23//1
f 22//1 26//1 25//1
f 21//1 26//1 22//1
f 21//1 27//1 26//1
f 20//1 27//1 21//1
f 20//1 28//1 27//1
f 19//1 28//1 20//1
f 19//1 29//1 28//1
f 18//1 29//1 19//1
f 18//1 30//1 29//1
f 17//1 30//1 18//1
f 17//1 31//1 30//1
f 16//1 31//1 17//1
f 15//1 31//1 16//1
f 15//1 32//1 31//1
f 14//1 32//1 15//1
f 14//1 33//1 32//1
f 13//1 33//1 14//1
f 12//1 33//1 13//1
f 12//1 34//1 33//1
f 11//1 34//1 12//1
f 11//1 35//1 34//1
f 10//1 35//1 11//1
f 10//1 36//1 35//1
f 10//1 37//1 36//1
f 9//1 37//1 10//1
f 9//1 38//1 37//1
f 8//1 38//1 9//1
f 8//1 39//1 38//1
f 8//1 40//1 39//1
f 7//1 40//1 8//1
f 7//1 41//1 40//1
f 6//1 41//1 7//1
f 6//1 42//1 41//1
f 5//1 42//1 6//1
f 5//1 43//1 42//1
f 4//1 43//1 5//1
f 4//1 44//1 43//1
f 3//1 44//1 4//1
f 3//1 45//1 44//1
f 2//1 45//1 3//1
f 2//1 46//1 45//1
f 1//1 46//1 2//1
f 1//1 47//1 46//1
f 84//1 47//1 1//1
f 84//1 48//1 47//1
f 83//1 48//1 84//1
f 83//1 49//1 48//1
f 82//1 49//1 83//1
f 81//1 49//1 82//1
f 81//1 50//1 49//1
f 80//1 50//1 81//1
f 79//1 50//1 80//1
f 78//1 50//1 79//1
f 78//1 51//1 50//1
f 77//1 51//1 78//1
f 76//1 51//1 77//1
f 75//1 51//1 76//1
f 75//1 52//1 51//1
f 74//1 52//1 75//1
f 73//1 52//1 74//1
f 72//1 52//1 73//1
f 72//1 53//1 52//1
f 71//1 53//1 72//1
f 70//1 53//1 71//1
f 69//1 53//1 70//1
f 69//1 54//1 53//1
f 68//1 54//1 69//1
f 68//1 55//1 54//1
f 67//1 55//1 68//1
f 66//1 55//1 67//1
f 66//1 56//1 55//1
f 65//1 56//1 66//1
f 65//1 57//1 56//1
f 64//1 57//1 65//1
f 63//1 57//1 64//1
f 63//1 58//1 57//1
f 62//1 58//1 63//1
f 62//1 59//1 58//1
f 61//1 59//1 62//1
f 61//1 60//1 59//1
f 109//2 107//2 108//2
f 109//2 106//2 107//2
f 110//2 106//2 109//2
f 110//2 105//2 106//2
f 111//2 105//2 110//2
f 111//2 104//2 105//2
f 112//2 104//2 111//2
f 112//2 103//2 104//2
f 113//2 103//2 112//2
f 113//2 102//2 103//2
f 114//2 102//2 113//2
f 114//2 101//2 102//2
f 115//2 101//2 114//2
f 115//2 100//2 101//2
f 115//2 99//2 100//2
f 116//2 99//2 115//2
f 116//2 98//2 99//2
f 117//2 98//2 116//2
f 117//2 97//2 98//2
f 117//2 96//2 97//2
f 118//2 96//2 117//2
f 118//2 95//2 96//2
f 119//2 95//2 118//2
f 119//2 94//2 95//2
f 120//2 94//2 119//2
f 121//2 94//2 120//2
f 121//2 93//2 94//2
f 122//2 93//2 121//2
f 122//2 92//2 93//2
f 123//2 92//2 122//2
f 124//2 92//2 123//2
f 124//2 91//2 92//2
f 125//2 91//2 124//2
f 125//2 90//2 91//2
f 126//2 90//2 125//2
f 126//2 89//2 90//2
f 127//2 89//2 126//2
f 127//2 88//2 89//2
f 128//2 88//2 127//2
f 128//2 87//2 88//2
f 129//2 87//2 128//2
f 129//2 86//2 87//2
f 130//2 86//2 129//2
f 130//2 85//2 86//2
f 131//2 85//2 130//2
f 131//2 168//2 85//2
f 132//2 168//2 131//2
f 132//2 167//2 168//2
f 133//2 167//2 132//2
f 133//2 166//2 167//2
f 133//2 165//2 166//2
f 134//2 165//2 133//2
f 134//2 164//2 165//2
f 134//2 163//2 164//2
f 134//2 162//2 163//2
f 135//2 162//2 134//2
f 135//2 161//2 162//2
f 135//2 160//2 161//2
f 135//2 159//2 160//2
f 136//2 159//2 135//2
f 136//2 158//2 159//2
f 136//2 157//2 158//2
f 136//2 156//2 157//2
f 137//2 156//2 136//2
f 137//2 155//2 156//2
f 137//2 154//2 155//2
f 137//2 153//2 154//2
f 138//2 153//2 137//2
f 138//2 152//2 153//2
f 139//2 152//2 138//2
f 139//2 151//2 152//2
f 139//2 150//2 151//2
f 140//2 150//2 139//2
f 140//2 149//2 150//2
f 141//2 149//2 140//2
f 141//2 148//2 149//2
f 141//2 147//2 148//2
f 142//2 147//2 141//2
f 142//2 146//2 147//2
f 143//2 146//2 142//2
f 143//2 145//2 146//2
f 144//2 145//2 143//2
s 1
f 170//3 172//4 171//4 169//3
f 172//4 174//5 173//5 171//4
f 174//5 176//6 175//6 173//5
f 176//6 178//7 177//7 175//6
f 178//7 180//8 179//8 177//7
f 180//8 182//9 181//9 179//8
f 182//9 184//10 183//10 181//9
f 184//10 186//11 185//11 183//10
f 186//11 188//12 187//12 185//11
f 188//12 190//13 189//13 187//12
f 190//13 192//14 191//14 189//13
f 192//14 194//15 193//15 191//14
f 194//15 196//16 195//16 193//15
f 196//16 198//17 197//17 195//16
f 198//17 200//18 199//18 197//17
f 200//18 202//19 201//19 199//18
f 202//19 204//20 203//20 201//19
f 204//20 206//21 205//21 203//20
f 206//21 208//22 207//22 205//21
f 208//22 210//23 209//23 207//22
f 210//23 212//24 211//24 209//23
f 212//24 214//25 213//25 211//24
f 214//25 216//26 215//26 213//25
f 216//26 218//27 217//27 215//26
f 218//27 220//28 219//28 217//27
f 220//28 222//29 221//29 219//28
f 222//29 224//30 223//30 221//29
f 224//30 226//31 225//31 223//30
f 226//31 228//32 227//32 225//31
f 228//32 230//33 229//33 227//32
f 230//33 232//34 231//34 229//33
f 232//34 234//35 233//35 231//34
f 234//35 236//36 235//36 233//35
f 236//36 238//37 237//37 235//36
f 238//37 240//38 239//38 237//37
f 240//38 242//39 241//39 239//38
f 242//39 244//40 243//40 241//39
f 244//40 246//41 245//41 243//40
f 246//41 248//42 247//42 245//41
f 248//42 250//43 249//43 247//42
f 250//43 252//44 251//44 249//43
f 252//44 254//45 253//45 251//44
f 254//45 256//46 255//46 253//45
f 256//46 258//47 257//47 255//46
f 258//47 260//48 259//48 257//47
f 260//48 262//49 261//49 259//48
f 262//49 264//50 263//50 261//49
f 264//50 266//51 265//51 263//50
f 266//51 268//52 267//52 265//51
f 268//52 270//53 269//53 267//52
f 270//53 272//54 271//54 269//53
f 272//54 274//55 273//55 271//54
f 274//55 276//56 275//56 273//55
f 276//56 278//57 277//57 275//56
f 278//57 280//58 279//58 277//57
f 280//58 282//59 281//59 279//58
f 282//59 284//60 283//60 281//59
f 284//60 286//61 285//61 283//60
f 286//61 288//62 287//62 285//61
f 288//62 290//63 289//63 287//62
f 290//63 292//64 291//64 289//63
f 292//64 294//65 293//65 291//64
f 294//65 296//66 295//66 293//65
f 296//66 298//67 297//67 295//66
f 298//67 300//68 299//68 297//67
f 300//68 302//69 301//69 299//68
f 302//69 304//70 303//70 301//69
f 304//70 306//71 305//71 303//70
f 306//71 308//72 307//72 305//71
f 308//72 310//73 309//73 307//72
f 310//73 312//74 311//74 309//73
f 312//74 314//75 313//75 311//74
f 314//75 316//76 315//76 313//75
f 316//76 318//77 317//77 315//76
f 318//77 320//78 319//78 317//77
f 320//78 322//79 321//79 319//78
f 322//79 324//80 323//80 321//79
f 324//80 326//81 325//81 323//80
f 326//81 328//82 327//82 325//81
f 328//82 330//83 329//83 327//82
f 330//83 332//84 331//84 329//83
f 332//84 334//85 333//85 331//84
f 334//85 336//86 335//86 333//85
f 336//86 170//3 169//3 335//86
