# Blender v2.76 (sub 0) OBJ File: ''
# www.blender.org
mtllib ile4.mtl
o Curve.001_Oval-1-Copy-11
v 0.021316 0.010000 0.102314
v 0.021791 0.010000 0.094657
v 0.022607 0.010000 0.087246
v 0.023787 0.010000 0.080129
v 0.025350 0.010000 0.073356
v 0.027317 0.010000 0.066976
v 0.029710 0.010000 0.061038
v 0.032549 0.010000 0.055591
v 0.035856 0.010000 0.050685
v 0.039650 0.010000 0.046368
v 0.043953 0.010000 0.042690
v 0.048785 0.010000 0.039701
v 0.055210 0.010000 0.036977
v 0.062210 0.010000 0.035028
v 0.069694 0.010000 0.033751
v 0.077572 0.010000 0.033044
v 0.085752 0.010000 0.032804
v 0.094142 0.010000 0.032928
v 0.102653 0.010000 0.033315
v 0.111192 0.010000 0.033861
v 0.119668 0.010000 0.034464
v 0.127991 0.010000 0.035022
v 0.136069 0.010000 0.035432
v 0.143810 0.010000 0.035591
v 0.151327 0.010000 0.035011
v 0.160065 0.010000 0.033463
v 0.169742 0.010000 0.031232
v 0.180074 0.010000 0.028604
v 0.190781 0.010000 0.025866
v 0.201578 0.010000 0.023305
v 0.212185 0.010000 0.021205
v 0.222318 0.010000 0.019855
v 0.231695 0.010000 0.019539
v 0.240034 0.010000 0.020544
v 0.247052 0.010000 0.023157
v 0.252466 0.010000 0.027663
v 0.256500 0.010000 0.034440
v 0.259370 0.010000 0.043097
v 0.261232 0.010000 0.053309
v 0.262240 0.010000 0.064752
v 0.262549 0.010000 0.077102
v 0.262314 0.010000 0.090037
v 0.261691 0.010000 0.103232
v 0.260833 0.010000 0.116364
v 0.259896 0.010000 0.129108
v 0.259035 0.010000 0.141142
v 0.258405 0.010000 0.152140
v 0.258161 0.010000 0.161781
v 0.257147 0.010000 0.177688
v 0.254208 0.010000 0.190745
v 0.249499 0.010000 0.201231
v 0.243173 0.010000 0.209425
v 0.235385 0.010000 0.215608
v 0.226289 0.010000 0.220059
v 0.216038 0.010000 0.223058
v 0.204788 0.010000 0.224884
v 0.192692 0.010000 0.225818
v 0.179905 0.010000 0.226139
v 0.166580 0.010000 0.226126
v 0.152872 0.010000 0.226060
v 0.147514 0.010000 0.225084
v 0.142438 0.010000 0.222351
v 0.137611 0.010000 0.218149
v 0.132999 0.010000 0.212765
v 0.128569 0.010000 0.206489
v 0.124287 0.010000 0.199608
v 0.120119 0.010000 0.192411
v 0.116033 0.010000 0.185186
v 0.111993 0.010000 0.178223
v 0.107966 0.010000 0.171808
v 0.103920 0.010000 0.166232
v 0.099820 0.010000 0.161781
v 0.093012 0.010000 0.156746
v 0.085298 0.010000 0.152904
v 0.076965 0.010000 0.149937
v 0.068297 0.010000 0.147526
v 0.059580 0.010000 0.145355
v 0.051100 0.010000 0.143106
v 0.043141 0.010000 0.140460
v 0.035990 0.010000 0.137100
v 0.029931 0.010000 0.132708
v 0.025250 0.010000 0.126967
v 0.022232 0.010000 0.119559
v 0.021162 0.010000 0.110166
v 0.021316 -0.010000 0.102314
v 0.021791 -0.010000 0.094657
v 0.022607 -0.010000 0.087246
v 0.023787 -0.010000 0.080129
v 0.025350 -0.010000 0.073356
v 0.027317 -0.010000 0.066976
v 0.029710 -0.010000 0.061038
v 0.032549 -0.010000 0.055591
v 0.035856 -0.010000 0.050685
v 0.039650 -0.010000 0.046368
v 0.043953 -0.010000 0.042690
v 0.048785 -0.010000 0.039701
v 0.055210 -0.010000 0.036977
v 0.062210 -0.010000 0.035028
v 0.069694 -0.010000 0.033751
v 0.077572 -0.010000 0.033044
v 0.085752 -0.010000 0.032804
v 0.094142 -0.010000 0.032928
v 0.102653 -0.010000 0.033315
v 0.111192 -0.010000 0.033861
v 0.119668 -0.010000 0.034464
v 0.127991 -0.010000 0.035022
v 0.136069 -0.010000 0.035432
v 0.143810 -0.010000 0.035591
v 0.151327 -0.010000 0.035011
v 0.160065 -0.010000 0.033463
v 0.169742 -0.010000 0.031232
v 0.180074 -0.010000 0.028604
v 0.190781 -0.010000 0.025866
v 0.201578 -0.010000 0.023305
v 0.212185 -0.010000 0.021205
v 0.222318 -0.010000 0.019855
v 0.231695 -0.010000 0.019539
v 0.240034 -0.010000 0.020544
v 0.247052 -0.010000 0.023157
v 0.252466 -0.010000 0.027663
v 0.256500 -0.010000 0.034440
v 0.259370 -0.010000 0.043097
v 0.261232 -0.010000 0.053309
v 0.262240 -0.010000 0.064752
v 0.262549 -0.010000 0.077102
v 0.262314 -0.010000 0.090037
v 0.261691 -0.010000 0.103232
v 0.260833 -0.010000 0.116364
v 0.259896 -0.010000 0.129108
v 0.259035 -0.010000 0.141142
v 0.258405 -0.010000 0.152140
v 0.258161 -0.010000 0.161781
v 0.257147 -0.010000 0.177688
v 0.254208 -0.010000 0.190745
v 0.249499 -0.010000 0.201231
v 0.243173 -0.010000 0.209425
v 0.235385 -0.010000 0.215608
v 0.226289 -0.010000 0.220059
v 0.216038 -0.010000 0.223058
v 0.204788 -0.010000 0.224884
v 0.192692 -0.010000 0.225818
v 0.179905 -0.010000 0.226139
v 0.166580 -0.010000 0.226126
v 0.152872 -0.010000 0.226060
v 0.147514 -0.010000 0.225084
v 0.142438 -0.010000 0.222351
v 0.137611 -0.010000 0.218149
v 0.132999 -0.010000 0.212765
v 0.128569 -0.010000 0.206489
v 0.124287 -0.010000 0.199608
v 0.120119 -0.010000 0.192411
v 0.116033 -0.010000 0.185186
v 0.111993 -0.010000 0.178223
v 0.107966 -0.010000 0.171808
v 0.103920 -0.010000 0.166232
v 0.099820 -0.010000 0.161781
v 0.093012 -0.010000 0.156746
v 0.085298 -0.010000 0.152904
v 0.076965 -0.010000 0.149937
v 0.068297 -0.010000 0.147526
v 0.059580 -0.010000 0.145355
v 0.051100 -0.010000 0.143106
v 0.043141 -0.010000 0.140460
v 0.035990 -0.010000 0.137100
v 0.029931 -0.010000 0.132708
v 0.025250 -0.010000 0.126967
v 0.022232 -0.010000 0.119559
v 0.021162 -0.010000 0.110166
v 0.021316 -0.010000 0.102314
v 0.021316 0.010000 0.102314
v 0.021791 -0.010000 0.094657
v 0.021791 0.010000 0.094657
v 0.022607 -0.010000 0.087246
v 0.022607 0.010000 0.087246
v 0.023787 -0.010000 0.080129
v 0.023787 0.010000 0.080129
v 0.025350 -0.010000 0.073356
v 0.025350 0.010000 0.073356
v 0.027317 -0.010000 0.066976
v 0.027317 0.010000 0.066976
v 0.029710 -0.010000 0.061038
v 0.029710 0.010000 0.061038
v 0.032549 -0.010000 0.055591
v 0.032549 0.010000 0.055591
v 0.035856 -0.010000 0.050685
v 0.035856 0.010000 0.050685
v 0.039650 -0.010000 0.046368
v 0.039650 0.010000 0.046368
v 0.043953 -0.010000 0.042690
v 0.043953 0.010000 0.042690
v 0.048785 -0.010000 0.039701
v 0.048785 0.010000 0.039701
v 0.055210 -0.010000 0.036977
v 0.055210 0.010000 0.036977
v 0.062210 -0.010000 0.035028
v 0.062210 0.010000 0.035028
v 0.069694 -0.010000 0.033751
v 0.069694 0.010000 0.033751
v 0.077572 -0.010000 0.033044
v 0.077572 0.010000 0.033044
v 0.085752 -0.010000 0.032804
v 0.085752 0.010000 0.032804
v 0.094142 -0.010000 0.032928
v 0.094142 0.010000 0.032928
v 0.102653 -0.010000 0.033315
v 0.102653 0.010000 0.033315
v 0.111192 -0.010000 0.033861
v 0.111192 0.010000 0.033861
v 0.119668 -0.010000 0.034464
v 0.119668 0.010000 0.034464
v 0.127991 -0.010000 0.035022
v 0.127991 0.010000 0.035022
v 0.136069 -0.010000 0.035432
v 0.136069 0.010000 0.035432
v 0.143810 -0.010000 0.035591
v 0.143810 0.010000 0.035591
v 0.151327 -0.010000 0.035011
v 0.151327 0.010000 0.035011
v 0.160065 -0.010000 0.033463
v 0.160065 0.010000 0.033463
v 0.169742 -0.010000 0.031232
v 0.169742 0.010000 0.031232
v 0.180074 -0.010000 0.028604
v 0.180074 0.010000 0.028604
v 0.190781 -0.010000 0.025866
v 0.190781 0.010000 0.025866
v 0.201578 -0.010000 0.023305
v 0.201578 0.010000 0.023305
v 0.212185 -0.010000 0.021205
v 0.212185 0.010000 0.021205
v 0.222318 -0.010000 0.019855
v 0.222318 0.010000 0.019855
v 0.231695 -0.010000 0.019539
v 0.231695 0.010000 0.019539
v 0.240034 -0.010000 0.020544
v 0.240034 0.010000 0.020544
v 0.247052 -0.010000 0.023157
v 0.247052 0.010000 0.023157
v 0.252466 -0.010000 0.027663
v 0.252466 0.010000 0.027663
v 0.256500 -0.010000 0.034440
v 0.256500 0.010000 0.034440
v 0.259370 -0.010000 0.043097
v 0.259370 0.010000 0.043097
v 0.261232 -0.010000 0.053309
v 0.261232 0.010000 0.053309
v 0.262240 -0.010000 0.064752
v 0.262240 0.010000 0.064752
v 0.262549 -0.010000 0.077102
v 0.262549 0.010000 0.077102
v 0.262314 -0.010000 0.090037
v 0.262314 0.010000 0.090037
v 0.261691 -0.010000 0.103232
v 0.261691 0.010000 0.103232
v 0.260833 -0.010000 0.116364
v 0.260833 0.010000 0.116364
v 0.259896 -0.010000 0.129108
v 0.259896 0.010000 0.129108
v 0.259035 -0.010000 0.141142
v 0.259035 0.010000 0.141142
v 0.258405 -0.010000 0.152140
v 0.258405 0.010000 0.152140
v 0.258161 -0.010000 0.161781
v 0.258161 0.010000 0.161781
v 0.257147 -0.010000 0.177688
v 0.257147 0.010000 0.177688
v 0.254208 -0.010000 0.190745
v 0.254208 0.010000 0.190745
v 0.249499 -0.010000 0.201231
v 0.249499 0.010000 0.201231
v 0.243173 -0.010000 0.209425
v 0.243173 0.010000 0.209425
v 0.235385 -0.010000 0.215608
v 0.235385 0.010000 0.215608
v 0.226289 -0.010000 0.220059
v 0.226289 0.010000 0.220059
v 0.216038 -0.010000 0.223058
v 0.216038 0.010000 0.223058
v 0.204788 -0.010000 0.224884
v 0.204788 0.010000 0.224884
v 0.192692 -0.010000 0.225818
v 0.192692 0.010000 0.225818
v 0.179905 -0.010000 0.226139
v 0.179905 0.010000 0.226139
v 0.166580 -0.010000 0.226126
v 0.166580 0.010000 0.226126
v 0.152872 -0.010000 0.226060
v 0.152872 0.010000 0.226060
v 0.147514 -0.010000 0.225084
v 0.147514 0.010000 0.225084
v 0.142438 -0.010000 0.222351
v 0.142438 0.010000 0.222351
v 0.137611 -0.010000 0.218149
v 0.137611 0.010000 0.218149
v 0.132999 -0.010000 0.212765
v 0.132999 0.010000 0.212765
v 0.128569 -0.010000 0.206489
v 0.128569 0.010000 0.206489
v 0.124287 -0.010000 0.199608
v 0.124287 0.010000 0.199608
v 0.120119 -0.010000 0.192411
v 0.120119 0.010000 0.192411
v 0.116033 -0.010000 0.185186
v 0.116033 0.010000 0.185186
v 0.111993 -0.010000 0.178223
v 0.111993 0.010000 0.178223
v 0.107966 -0.010000 0.171808
v 0.107966 0.010000 0.171808
v 0.103920 -0.010000 0.166232
v 0.103920 0.010000 0.166232
v 0.099820 -0.010000 0.161781
v 0.099820 0.010000 0.161781
v 0.093012 -0.010000 0.156746
v 0.093012 0.010000 0.156746
v 0.085298 -0.010000 0.152904
v 0.085298 0.010000 0.152904
v 0.076965 -0.010000 0.149937
v 0.076965 0.010000 0.149937
v 0.068297 -0.010000 0.147526
v 0.068297 0.010000 0.147526
v 0.059580 -0.010000 0.145355
v 0.059580 0.010000 0.145355
v 0.051100 -0.010000 0.143106
v 0.051100 0.010000 0.143106
v 0.043141 -0.010000 0.140460
v 0.043141 0.010000 0.140460
v 0.035990 -0.010000 0.137100
v 0.035990 0.010000 0.137100
v 0.029931 -0.010000 0.132708
v 0.029931 0.010000 0.132708
v 0.025250 -0.010000 0.126967
v 0.025250 0.010000 0.126967
v 0.022232 -0.010000 0.119559
v 0.022232 0.010000 0.119559
v 0.021162 -0.010000 0.110166
v 0.021162 0.010000 0.110166
vn 0.000000 1.000000 0.000000
vn 0.000000 -1.000000 0.000000
vn -0.999100 0.000000 -0.040700
vn -0.996300 0.000000 -0.085700
vn -0.990600 0.000000 -0.136500
vn -0.980900 0.000000 -0.194300
vn -0.965600 0.000000 -0.259900
vn -0.942400 0.000000 -0.334500
vn -0.908200 0.000000 -0.418500
vn -0.859400 0.000000 -0.511300
vn -0.791800 0.000000 -0.610700
vn -0.702200 0.000000 -0.712000
vn -0.589600 0.000000 -0.807600
vn -0.459500 0.000000 -0.888100
vn -0.329900 0.000000 -0.944000
vn -0.218500 0.000000 -0.975800
vn -0.128900 0.000000 -0.991600
vn -0.059400 0.000000 -0.998200
vn -0.007200 0.000000 -1.000000
vn 0.030100 0.000000 -0.999500
vn 0.054600 0.000000 -0.998500
vn 0.067400 0.000000 -0.997700
vn 0.068900 0.000000 -0.997600
vn 0.058700 0.000000 -0.998300
vn 0.035600 0.000000 -0.999400
vn -0.028200 0.000000 -0.999600
vn -0.125900 0.000000 -0.992000
vn -0.199700 0.000000 -0.979900
vn -0.235600 0.000000 -0.971800
vn -0.247100 0.000000 -0.969000
vn -0.239300 0.000000 -0.970900
vn -0.212500 0.000000 -0.977100
vn -0.163200 0.000000 -0.986600
vn -0.083000 0.000000 -0.996500
vn 0.043100 0.000000 -0.999100
vn 0.235900 0.000000 -0.971700
vn 0.501400 0.000000 -0.865200
vn 0.760400 0.000000 -0.649400
vn 0.909600 0.000000 -0.415500
vn 0.968800 0.000000 -0.247600
vn 0.991000 0.000000 -0.133700
vn 0.998400 0.000000 -0.056400
vn 1.000000 0.000000 -0.003400
vn 0.999500 0.000000 0.032700
vn 0.998400 0.000000 0.056200
vn 0.997600 0.000000 0.069200
vn 0.997400 0.000000 0.072300
vn 0.997900 0.000000 0.064300
vn 0.999100 0.000000 0.041300
vn 0.999000 0.000000 0.044500
vn 0.989800 0.000000 0.142000
vn 0.948700 0.000000 0.316200
vn 0.857800 0.000000 0.513900
vn 0.711900 0.000000 0.702300
vn 0.533700 0.000000 0.845600
vn 0.361500 0.000000 0.932400
vn 0.220900 0.000000 0.975300
vn 0.118700 0.000000 0.992900
vn 0.051000 0.000000 0.998700
vn 0.012100 0.000000 0.999900
vn -0.002900 0.000000 1.000000
vn -0.092300 0.000000 0.995700
vn -0.330600 0.000000 0.943800
vn -0.568900 0.000000 0.822400
vn -0.709900 0.000000 0.704200
vn -0.789100 0.000000 0.614300
vn -0.833300 0.000000 0.552700
vn -0.857300 0.000000 0.514800
vn -0.867900 0.000000 0.496700
vn -0.867700 0.000000 0.497100
vn -0.856100 0.000000 0.516800
vn -0.828600 0.000000 0.559700
vn -0.773700 0.000000 0.633500
vn -0.668000 0.000000 0.744100
vn -0.522200 0.000000 0.852800
vn -0.391300 0.000000 0.920200
vn -0.301900 0.000000 0.953300
vn -0.254800 0.000000 0.967000
vn -0.249000 0.000000 0.968500
vn -0.286000 0.000000 0.958200
vn -0.371000 0.000000 0.928600
vn -0.508300 0.000000 0.861200
vn -0.686700 0.000000 0.726900
vn -0.860000 0.000000 0.510200
vn -0.968900 0.000000 0.247500
vn -0.998900 0.000000 0.046900
usemtl SVGMat.017
s off
f 32//1 34//1 33//1
f 31//1 34//1 32//1
f 31//1 35//1 34//1
f 30//1 35//1 31//1
f 30//1 36//1 35//1
f 29//1 36//1 30//1
f 28//1 36//1 29//1
f 28//1 37//1 36//1
f 27//1 37//1 28//1
f 26//1 37//1 27//1
f 16//1 18//1 17//1
f 16//1 19//1 18//1
f 15//1 19//1 16//1
f 15//1 20//1 19//1
f 25//1 37//1 26//1
f 14//1 20//1 15//1
f 14//1 21//1 20//1
f 25//1 38//1 37//1
f 14//1 22//1 21//1
f 24//1 38//1 25//1
f 14//1 23//1 22//1
f 13//1 23//1 14//1
f 13//1 24//1 23//1
f 13//1 38//1 24//1
f 12//1 38//1 13//1
f 11//1 38//1 12//1
f 10//1 38//1 11//1
f 10//1 39//1 38//1
f 9//1 39//1 10//1
f 8//1 39//1 9//1
f 8//1 40//1 39//1
f 7//1 40//1 8//1
f 6//1 40//1 7//1
f 6//1 41//1 40//1
f 5//1 41//1 6//1
f 4//1 41//1 5//1
f 4//1 42//1 41//1
f 3//1 42//1 4//1
f 2//1 42//1 3//1
f 2//1 43//1 42//1
f 1//1 43//1 2//1
f 84//1 43//1 1//1
f 84//1 44//1 43//1
f 83//1 44//1 84//1
f 83//1 45//1 44//1
f 82//1 45//1 83//1
f 81//1 45//1 82//1
f 81//1 46//1 45//1
f 80//1 46//1 81//1
f 79//1 46//1 80//1
f 78//1 46//1 79//1
f 78//1 47//1 46//1
f 77//1 47//1 78//1
f 76//1 47//1 77//1
f 75//1 47//1 76//1
f 74//1 47//1 75//1
f 74//1 48//1 47//1
f 73//1 48//1 74//1
f 72//1 48//1 73//1
f 72//1 49//1 48//1
f 71//1 49//1 72//1
f 70//1 49//1 71//1
f 69//1 49//1 70//1
f 69//1 50//1 49//1
f 68//1 50//1 69//1
f 67//1 50//1 68//1
f 67//1 51//1 50//1
f 66//1 51//1 67//1
f 65//1 51//1 66//1
f 65//1 52//1 51//1
f 64//1 52//1 65//1
f 64//1 53//1 52//1
f 63//1 53//1 64//1
f 63//1 54//1 53//1
f 62//1 54//1 63//1
f 62//1 55//1 54//1
f 61//1 55//1 62//1
f 61//1 56//1 55//1
f 61//1 57//1 56//1
f 60//1 57//1 61//1
f 60//1 58//1 57//1
f 59//1 58//1 60//1
f 118//2 116//2 117//2
f 118//2 115//2 116//2
f 119//2 115//2 118//2
f 119//2 114//2 115//2
f 120//2 114//2 119//2
f 120//2 113//2 114//2
f 120//2 112//2 113//2
f 121//2 112//2 120//2
f 121//2 111//2 112//2
f 121//2 110//2 111//2
f 102//2 100//2 101//2
f 103//2 100//2 102//2
f 103//2 99//2 100//2
f 104//2 99//2 103//2
f 121//2 109//2 110//2
f 104//2 98//2 99//2
f 105//2 98//2 104//2
f 122//2 109//2 121//2
f 106//2 98//2 105//2
f 122//2 108//2 109//2
f 107//2 98//2 106//2
f 107//2 97//2 98//2
f 108//2 97//2 107//2
f 122//2 97//2 108//2
f 122//2 96//2 97//2
f 122//2 95//2 96//2
f 122//2 94//2 95//2
f 123//2 94//2 122//2
f 123//2 93//2 94//2
f 123//2 92//2 93//2
f 124//2 92//2 123//2
f 124//2 91//2 92//2
f 124//2 90//2 91//2
f 125//2 90//2 124//2
f 125//2 89//2 90//2
f 125//2 88//2 89//2
f 126//2 88//2 125//2
f 126//2 87//2 88//2
f 126//2 86//2 87//2
f 127//2 86//2 126//2
f 127//2 85//2 86//2
f 127//2 168//2 85//2
f 128//2 168//2 127//2
f 128//2 167//2 168//2
f 129//2 167//2 128//2
f 129//2 166//2 167//2
f 129//2 165//2 166//2
f 130//2 165//2 129//2
f 130//2 164//2 165//2
f 130//2 163//2 164//2
f 130//2 162//2 163//2
f 131//2 162//2 130//2
f 131//2 161//2 162//2
f 131//2 160//2 161//2
f 131//2 159//2 160//2
f 131//2 158//2 159//2
f 132//2 158//2 131//2
f 132//2 157//2 158//2
f 132//2 156//2 157//2
f 133//2 156//2 132//2
f 133//2 155//2 156//2
f 133//2 154//2 155//2
f 133//2 153//2 154//2
f 134//2 153//2 133//2
f 134//2 152//2 153//2
f 134//2 151//2 152//2
f 135//2 151//2 134//2
f 135//2 150//2 151//2
f 135//2 149//2 150//2
f 136//2 149//2 135//2
f 136//2 148//2 149//2
f 137//2 148//2 136//2
f 137//2 147//2 148//2
f 138//2 147//2 137//2
f 138//2 146//2 147//2
f 139//2 146//2 138//2
f 139//2 145//2 146//2
f 140//2 145//2 139//2
f 141//2 145//2 140//2
f 141//2 144//2 145//2
f 142//2 144//2 141//2
f 142//2 143//2 144//2
s 1
f 170//3 172//4 171//4 169//3
f 172//4 174//5 173//5 171//4
f 174//5 176//6 175//6 173//5
f 176//6 178//7 177//7 175//6
f 178//7 180//8 179//8 177//7
f 180//8 182//9 181//9 179//8
f 182//9 184//10 183//10 181//9
f 184//10 186//11 185//11 183//10
f 186//11 188//12 187//12 185//11
f 188//12 190//13 189//13 187//12
f 190//13 192//14 191//14 189//13
f 192//14 194//15 193//15 191//14
f 194//15 196//16 195//16 193//15
f 196//16 198//17 197//17 195//16
f 198//17 200//18 199//18 197//17
f 200//18 202//19 201//19 199//18
f 202//19 204//20 203//20 201//19
f 204//20 206//21 205//21 203//20
f 206//21 208//22 207//22 205//21
f 208//22 210//23 209//23 207//22
f 210//23 212//24 211//24 209//23
f 212//24 214//25 213//25 211//24
f 214//25 216//26 215//26 213//25
f 216//26 218//27 217//27 215//26
f 218//27 220//28 219//28 217//27
f 220//28 222//29 221//29 219//28
f 222//29 224//30 223//30 221//29
f 224//30 226//31 225//31 223//30
f 226//31 228//32 227//32 225//31
f 228//32 230//33 229//33 227//32
f 230//33 232//34 231//34 229//33
f 232//34 234//35 233//35 231//34
f 234//35 236//36 235//36 233//35
f 236//36 238//37 237//37 235//36
f 238//37 240//38 239//38 237//37
f 240//38 242//39 241//39 239//38
f 242//39 244//40 243//40 241//39
f 244//40 246//41 245//41 243//40
f 246//41 248//42 247//42 245//41
f 248//42 250//43 249//43 247//42
f 250//43 252//44 251//44 249//43
f 252//44 254//45 253//45 251//44
f 254//45 256//46 255//46 253//45
f 256//46 258//47 257//47 255//46
f 258//47 260//48 259//48 257//47
f 260//48 262//49 261//49 259//48
f 262//49 264//50 263//50 261//49
f 264//50 266//51 265//51 263//50
f 266//51 268//52 267//52 265//51
f 268//52 270//53 269//53 267//52
f 270//53 272//54 271//54 269//53
f 272//54 274//55 273//55 271//54
f 274//55 276//56 275//56 273//55
f 276//56 278//57 277//57 275//56
f 278//57 280//58 279//58 277//57
f 280//58 282//59 281//59 279//58
f 282//59 284//60 283//60 281//59
f 284//60 286//61 285//61 283//60
f 286//61 288//62 287//62 285//61
f 288//62 290//63 289//63 287//62
f 290//63 292//64 291//64 289//63
f 292//64 294//65 293//65 291//64
f 294//65 296//66 295//66 293//65
f 296//66 298//67 297//67 295//66
f 298//67 300//68 299//68 297//67
f 300//68 302//69 301//69 299//68
f 302//69 304//70 303//70 301//69
f 304//70 306//71 305//71 303//70
f 306//71 308//72 307//72 305//71
f 308//72 310//73 309//73 307//72
f 310//73 312//74 311//74 309//73
f 312//74 314//75 313//75 311//74
f 314//75 316//76 315//76 313//75
f 316//76 318//77 317//77 315//76
f 318//77 320//78 319//78 317//77
f 320//78 322//79 321//79 319//78
f 322//79 324//80 323//80 321//79
f 324//80 326//81 325//81 323//80
f 326//81 328//82 327//82 325//81
f 328//82 330//83 329//83 327//82
f 330//83 332//84 331//84 329//83
f 332//84 334//85 333//85 331//84
f 334//85 336//86 335//86 333//85
f 336//86 170//3 169//3 335//86
